<svg width="68" height="66" viewBox="0 0 68 66" fill="none" xmlns="http://www.w3.org/2000/svg">
<path d="M34.1315 0C52.8341 0 68 15.1287 68 33.7915C68 48.7217 58.2957 61.3881 44.8386 65.8564C43.146 66.1691 42.5244 65.1234 42.5244 64.2308C42.5244 63.4251 42.556 60.763 42.5704 57.9394C51.9929 59.9835 53.9811 53.9524 53.9811 53.9524C55.5217 50.0466 57.7416 49.0082 57.7416 49.0082C60.8143 46.9108 57.5099 46.9538 57.5099 46.9538C54.1089 47.1923 52.318 50.4361 52.318 50.4361C49.2973 55.6022 44.395 54.1085 42.4623 53.2454C42.1584 51.0611 41.2805 49.5706 40.312 48.7268C47.8345 47.8721 55.7427 44.9746 55.7427 32.0267C55.7427 28.3376 54.4197 25.323 52.253 22.9567C52.6046 22.1054 53.7638 18.6686 51.9249 14.014C51.9249 14.014 49.0809 13.1058 42.6086 17.4779C39.9072 16.7289 37.0098 16.3537 34.1315 16.3409C31.2532 16.3537 28.3536 16.7289 25.6469 17.4779C19.1824 13.1058 16.3423 14.014 16.3423 14.014C14.4989 18.6686 15.6586 22.1054 16.0103 22.9567C13.8388 25.323 12.5247 28.3374 12.5247 32.0267C12.5247 45.0053 20.4478 47.8633 27.9894 48.6997C26.7747 49.7484 25.6923 51.805 25.6923 54.9574C25.6923 59.4787 25.7316 63.1177 25.7316 64.2308C25.7316 65.13 25.122 66.1837 23.405 65.8519C9.95536 61.3786 0.263237 48.7167 0.263237 33.7915C0.263237 15.1287 15.427 0 34.1315 0Z" fill="#161614"/>
<path d="M55.315 48.1369C55.3894 48.3046 55.6545 48.355 55.8954 48.2399C56.1411 48.1297 56.2793 47.9007 56.1996 47.7322C56.1265 47.5594 55.8614 47.5111 55.6163 47.6272C55.37 47.7372 55.2298 47.9683 55.315 48.1369ZM53.649 49.6199C53.8105 49.7694 54.1264 49.7 54.3407 49.4638C54.5623 49.2282 54.6037 48.9134 54.4398 48.7615C54.2733 48.6123 53.967 48.682 53.7449 48.9179C53.5234 49.1561 53.4804 49.4691 53.6493 49.6202L53.649 49.6199ZM52.5061 51.5175C52.7138 51.6614 53.0533 51.5265 53.2628 51.2259C53.4703 50.9257 53.4703 50.5652 53.2583 50.4208C53.0479 50.2764 52.7138 50.4062 52.5013 50.7044C52.2941 51.01 52.2941 51.3704 52.5063 51.5177L52.5061 51.5175ZM50.5734 53.7153C50.759 53.9193 51.1543 53.8648 51.4438 53.586C51.7397 53.3135 51.8223 52.9268 51.6361 52.7225C51.4483 52.5179 51.0507 52.5754 50.7591 52.8518C50.465 53.1238 50.3752 53.5133 50.5731 53.7153H50.5734ZM48.0754 54.4573C48.157 54.7218 48.5379 54.8422 48.9215 54.7298C49.3045 54.614 49.5552 54.3039 49.4779 54.0365C49.3983 53.7701 49.0158 53.6448 48.6293 53.7651C48.2468 53.8804 47.9955 54.1881 48.0752 54.4573H48.0754ZM45.2322 54.7719C45.2226 55.0507 45.548 55.2818 45.9507 55.2869C46.3558 55.2956 46.6833 55.0701 46.6876 54.796C46.6876 54.5146 46.3696 54.2856 45.9648 54.279C45.5621 54.271 45.2322 54.495 45.2322 54.7719ZM42.4394 54.6651C42.3911 54.937 42.671 55.2164 43.0708 55.2906C43.4639 55.3621 43.8278 55.1944 43.878 54.9248C43.9269 54.646 43.6416 54.367 43.2493 54.2946C42.8487 54.2252 42.4904 54.3887 42.4394 54.6651Z" fill="#161614"/>
</svg>
