<svg width="85" height="85" viewBox="0 0 85 85" fill="none" xmlns="http://www.w3.org/2000/svg">
<path d="M5.79561 75.6549H19.3182V42.814L0 28.3253V69.8596C0 73.0616 2.5935 75.6552 5.79561 75.6552V75.6549Z" fill="#4285F4"/>
<path d="M65.6816 75.6549H79.2045C82.4064 75.6549 84.9999 73.0614 84.9999 69.8594V28.3253L65.6816 42.814V75.6549Z" fill="#34A853"/>
<path d="M65.6816 17.7003V42.814L84.9999 28.3253V20.5981C84.9999 13.4359 76.8236 9.34523 71.0908 13.6435L65.6816 17.7003Z" fill="#FBBC04"/>
<path fill-rule="evenodd" clip-rule="evenodd" d="M19.3184 42.8139V17.7002L42.5001 35.0867L65.6819 17.7002V42.8139L42.5001 60.2002L19.3184 42.8139Z" fill="#EA4335"/>
<path d="M0 20.598V28.3252L19.3182 42.8139V17.7002L13.9091 13.6434C8.17627 9.34512 0 13.4357 0 20.5977V20.598Z" fill="#C5221F"/>
</svg>
