<svg width="72" height="72" viewBox="0 0 72 72" fill="none" xmlns="http://www.w3.org/2000/svg">
<g clip-path="url(#clip0)">
<path d="M26.3415 63.2195C24.4046 63.2195 22.8293 61.6461 22.8293 59.7073V12.2927C22.8293 10.3557 24.4046 8.78052 26.3415 8.78052H59.7074C61.6461 8.78052 63.2196 10.3557 63.2196 12.2927H66.7318C68.6705 12.2927 70.244 13.8679 70.244 15.8049V24.5854C70.244 26.5224 68.6705 28.0976 66.7318 28.0976C68.6705 28.0976 70.244 29.6728 70.244 31.6098V40.3903C70.244 41.3218 69.8739 42.2151 69.2153 42.8738C68.5566 43.5324 67.6633 43.9025 66.7318 43.9025C67.6633 43.9025 68.5566 44.2725 69.2153 44.9312C69.8739 45.5898 70.244 46.4832 70.244 47.4147V56.1952C70.244 57.1266 69.8739 58.02 69.2153 58.6786C68.5566 59.3373 67.6633 59.7073 66.7318 59.7073H63.2196C63.2196 60.6388 62.8495 61.5322 62.1909 62.1908C61.5322 62.8495 60.6389 63.2195 59.7074 63.2195H26.3415Z" fill="white"/>
<path d="M72.0001 15.8049C72.0001 12.9003 69.6364 10.5366 66.7318 10.5366H64.6754C64.3111 9.51001 63.638 8.62132 62.7485 7.99248C61.859 7.36365 60.7967 7.02549 59.7074 7.02441H26.3415C23.4369 7.02441 21.0732 9.38812 21.0732 12.2927V59.7073C21.0732 62.6119 23.4369 64.9756 26.3415 64.9756H59.7074C60.7967 64.9746 61.859 64.6364 62.7485 64.0076C63.638 63.3787 64.3111 62.49 64.6754 61.4634H66.7318C69.6364 61.4634 72.0001 59.0997 72.0001 56.1951V47.4147C72.0001 46.066 71.4908 44.8349 70.6549 43.9025C71.522 42.9382 72.0012 41.687 72.0001 40.3903V31.6098C72.0001 30.2611 71.4908 29.0301 70.6549 28.0976C71.522 27.1334 72.0012 25.8821 72.0001 24.5854V15.8049ZM68.4879 56.1951C68.4879 56.6609 68.3028 57.1076 67.9735 57.4369C67.6442 57.7662 67.1975 57.9512 66.7318 57.9512H64.9757V45.6586H66.7318C67.1975 45.6586 67.6442 45.8436 67.9735 46.1729C68.3028 46.5022 68.4879 46.9489 68.4879 47.4147V56.1951ZM68.4879 40.3903C68.4879 40.856 68.3028 41.3027 67.9735 41.632C67.6442 41.9613 67.1975 42.1464 66.7318 42.1464H64.9757V29.8537H66.7318C67.1975 29.8537 67.6442 30.0387 67.9735 30.368C68.3028 30.6974 68.4879 31.144 68.4879 31.6098V40.3903ZM68.4879 24.5854C68.4879 25.0511 68.3028 25.4978 67.9735 25.8271C67.6442 26.1565 67.1975 26.3415 66.7318 26.3415H61.4635V59.7073C61.4635 60.1731 61.2785 60.6198 60.9491 60.9491C60.6198 61.2784 60.1731 61.4634 59.7074 61.4634H26.3415C25.8758 61.4634 25.4291 61.2784 25.0998 60.9491C24.7705 60.6198 24.5854 60.1731 24.5854 59.7073V12.2927C24.5854 11.827 24.7705 11.3803 25.0998 11.051C25.4291 10.7216 25.8758 10.5366 26.3415 10.5366H59.7074C60.1731 10.5366 60.6198 10.7216 60.9491 11.051C61.2785 11.3803 61.4635 11.827 61.4635 12.2927V14.0488H66.7318C67.1975 14.0488 67.6442 14.2338 67.9735 14.5632C68.3028 14.8925 68.4879 15.3392 68.4879 15.8049V24.5854Z" fill="#80397B"/>
<path d="M36.8779 15.8049H54.4389V19.3171H36.8779V15.8049ZM36.8779 26.3415H54.4389V22.8293H36.8779V26.3415ZM36.8779 33.3659H54.4389V29.8537H36.8779V33.3659ZM36.8779 40.3903H54.4389V36.8781H36.8779V40.3903ZM36.8779 47.4147H54.4389V43.9025H36.8779V47.4147ZM36.8779 54.4391H54.4389V50.9269H36.8779V54.4391Z" fill="#80397B"/>
<path d="M36.8779 15.8049H54.4389V19.3171H36.8779V15.8049ZM36.8779 26.3415H54.4389V22.8293H36.8779V26.3415ZM36.8779 33.3659H54.4389V29.8537H36.8779V33.3659ZM36.8779 40.3903H54.4389V36.8781H36.8779V40.3903ZM36.8779 47.4147H54.4389V43.9025H36.8779V47.4147ZM36.8779 54.4391H54.4389V50.9269H36.8779V54.4391Z" fill="#80397B"/>
<path d="M42.1463 0L0 8.78049V63.2195L42.1463 72V0Z" fill="#80397B"/>
<g opacity="0.05">
<path opacity="0.05" d="M42.1463 0L0 8.78049V63.2195L42.1463 72V0Z" fill="url(#paint0_linear)"/>
</g>
<path d="M26.7805 21.0732V41.7074C26.6541 41.4405 15.8049 21.5123 15.8049 21.5123L10.5366 21.9513V49.5975L15.8049 49.8908C15.8049 49.8908 15.826 29.1583 15.8049 28.8879L26.1799 50.5687L32.4878 50.9269V20.1952L26.7805 21.0732Z" fill="white"/>
</g>
<defs>
<linearGradient id="paint0_linear" x1="0" y1="36" x2="42.1463" y2="36" gradientUnits="userSpaceOnUse">
<stop stop-color="white"/>
<stop offset="1"/>
</linearGradient>
<clipPath id="clip0">
<rect width="72" height="72" fill="white"/>
</clipPath>
</defs>
</svg>
